<svg width="107" height="60" viewBox="0 0 107 60" fill="none" xmlns="http://www.w3.org/2000/svg">
<g id="parcels.com logo 1" clip-path="url(#clip0_45_1019)">
<g id="Clip path group">
<mask id="mask0_45_1019" style="mask-type:luminance" maskUnits="userSpaceOnUse" x="0" y="0" width="107" height="60">
<g id="g2a910d86c77_0_0.0">
<path id="Vector" d="M0 0H107V60H0V0Z" fill="white"/>
</g>
</mask>
<g mask="url(#mask0_45_1019)">
<g id="Group">
<path id="Vector_2" d="M8.75993 23.7815H5.87595L4.93204 29.0697H0.571228L3.64852 11.6843H11.0361C12.8613 11.6843 14.161 12.1027 14.9354 12.9395C15.5008 13.583 15.7835 14.4042 15.7835 15.403C15.7835 15.741 15.751 16.0952 15.686 16.4655L15.2019 19.193C14.9604 20.5298 14.2498 21.6287 13.0702 22.4899C11.8918 23.351 10.455 23.7815 8.75993 23.7815ZM9.51053 15.4499H7.33013L6.53077 20.0142H8.68679C10.0104 20.0142 10.7772 19.4268 10.9874 18.252L11.158 17.2624C11.1894 17.1166 11.205 16.9233 11.205 16.6826C11.205 16.4407 11.0837 16.175 10.8411 15.8857C10.5996 15.5952 10.1561 15.4499 9.51053 15.4499ZM24.3105 29.0697L24.455 25.278H20.4112L19.2234 29.0697H14.5962L20.8222 11.6843H28.8158L28.9134 29.0697H24.3105ZM23.3178 15.91L21.4039 22.0419H24.5769L24.8434 15.91H23.3178ZM41.3143 11.6843C43.1556 11.6843 44.4641 12.0865 45.2397 12.8909C45.8202 13.5032 46.1104 14.2757 46.1104 15.2086C46.1104 15.5304 46.0785 15.8683 46.0147 16.2225L45.6751 18.1062C45.4812 19.1525 45.1456 19.998 44.6685 20.6426C44.1924 21.2862 43.6642 21.7451 43.0837 22.0194L45.2867 29.0697H40.3947L38.3589 22.5732H36.8577L35.865 29.0697H31.2133L34.2906 11.6843L41.3143 11.6843ZM39.7887 15.4499H37.9722L37.3418 19.6513H39.0381C39.8937 19.6513 40.5073 19.4465 40.8789 19.0367C41.2504 18.6259 41.4362 18.0824 41.4362 17.4065C41.4362 16.1021 40.887 15.4499 39.7887 15.4499ZM53.2321 29.4083C50.9228 29.4083 49.3241 28.9088 48.4359 27.91C47.8229 27.2017 47.5164 26.2121 47.5164 24.9412C47.5164 24.3938 47.5727 23.8058 47.6853 23.1774L48.678 17.6235C49.4048 13.5506 52.0293 11.5142 56.5515 11.5142C58.4242 11.5142 59.8447 11.9129 60.813 12.7103C61.7825 13.5066 62.2672 14.5969 62.2672 15.9812C62.2672 16.6259 62.1743 17.2659 61.9886 17.9013C61.8028 18.5367 61.6211 19.0078 61.4435 19.3145L61.177 19.7971H56.8911C57.424 19.1849 57.6904 18.3157 57.6904 17.1895C57.6904 16.5934 57.5366 16.1224 57.2289 15.7763C56.9224 15.4302 56.4702 15.2572 55.8723 15.2572C54.2422 15.2572 53.2733 16.1588 52.9657 17.9621L52.1175 22.8388C52.0374 23.2578 51.9974 23.6687 51.9974 24.0715C51.9974 25.134 52.6353 25.6652 53.9113 25.6652C55.445 25.6652 56.3651 24.8041 56.6716 23.0819H61.0325L60.9105 23.7815C60.265 27.5327 57.7055 29.4083 53.2321 29.4083ZM74.9371 29.0697H62.7759L65.8532 11.6843H78.0126L77.3352 15.4499H69.5348L68.9776 18.7103H75.4212L74.742 22.4777H68.3001L67.8142 25.3024H75.6145L74.9371 29.0697ZM88.7681 29.0697H77.7215L80.7988 11.6843H85.1579L82.7598 25.3024H89.4456L88.7681 29.0697ZM95.3324 24.1201C95.3324 25.23 96.1358 25.785 97.7426 25.785C99.3495 25.785 100.153 25.2862 100.153 24.2885C100.153 23.7572 99.8783 23.3226 99.3292 22.9846C98.78 22.6467 98.1136 22.3649 97.3299 22.1392C96.5474 21.9135 95.7643 21.6519 94.9806 21.3544C94.198 21.057 93.5322 20.5905 92.983 19.9551C92.4339 19.3186 92.1593 18.5252 92.1593 17.5749C92.1593 13.5344 94.7669 11.5142 99.9823 11.5142C101.889 11.5142 103.33 11.8724 104.306 12.5888C105.284 13.3052 105.773 14.2995 105.773 15.5715C105.773 16.0379 105.712 16.4846 105.59 16.9117C105.469 17.3377 105.344 17.6392 105.216 17.8162L105.021 18.1062H100.735C101.09 17.7358 101.268 17.2694 101.268 16.7069C101.268 15.6606 100.581 15.1374 99.2073 15.1374C97.4797 15.1374 96.6159 15.6843 96.6159 16.778C96.6159 17.3255 96.8904 17.7607 97.4396 18.0836C97.9888 18.4054 98.6546 18.6588 99.4372 18.844C100.221 19.028 101.008 19.2572 101.799 19.5315C102.59 19.8047 103.261 20.2595 103.81 20.8961C104.359 21.5315 104.634 22.3562 104.634 23.3701C104.634 25.4152 104.02 26.9331 102.793 27.9239C101.566 28.9135 99.6763 29.4083 97.1244 29.4083C94.5736 29.4083 92.8298 28.9574 91.8928 28.0558C91.1985 27.3799 90.8514 26.4459 90.8514 25.2537C90.8514 24.8035 90.8996 24.3128 90.9959 23.7815L91.0691 23.3944H95.4299L95.3811 23.6843C95.3486 23.8452 95.3324 23.9904 95.3324 24.1201Z" fill="white"/>
<path id="Vector_3" d="M43.5571 46.1226C43.5571 44.9594 43.8305 44.0902 44.3773 43.5149C44.9253 42.9385 45.7642 42.6503 46.8939 42.6503C48.5855 42.6503 49.4313 43.4136 49.4313 44.9403C49.4313 46.0907 49.152 46.9489 48.5936 47.5149C48.0363 48.0809 47.1951 48.3639 46.0701 48.3639C44.3947 48.3639 43.5571 47.6168 43.5571 46.1226ZM57.406 48.3639C54.9458 48.3639 53.2205 47.8072 52.2302 46.6937C51.5347 45.8893 51.187 44.7898 51.187 43.3951C51.187 42.8176 51.2456 42.2001 51.3629 41.5427L52.3556 35.9889C53.1323 31.6405 55.9222 29.4663 60.7254 29.4663C62.7189 29.4663 64.2538 29.909 65.33 30.7944C66.4063 31.6799 66.9444 32.8934 66.9444 34.4351C66.9444 35.1272 66.8452 35.8124 66.6466 36.4906C66.4493 37.1677 66.2525 37.6758 66.0562 38.0149L65.6487 38.7528H59.9626C60.8949 37.681 61.3611 36.6445 61.3611 35.6434C61.3611 35.1735 61.2537 34.8176 61.0389 34.5757C60.8241 34.3338 60.4932 34.2128 60.0462 34.2128C58.6994 34.2128 57.896 34.9756 57.6359 36.501L56.7861 41.383C56.7117 41.773 56.6746 42.1538 56.6746 42.5253C56.6746 43.2533 57.1448 43.6174 58.0852 43.6174C59.338 43.6174 60.1176 42.7562 60.4241 41.034H65.8055L65.5808 42.3205C64.8877 46.3494 62.1628 48.3639 57.406 48.3639ZM76.3733 29.4663C80.6006 29.4663 82.7143 31.2192 82.7143 34.725C82.7143 35.2863 82.655 35.8876 82.5366 36.5288L81.6902 41.3569C81.2816 43.7146 80.3841 45.4721 78.9978 46.6295C77.6127 47.7858 75.6796 48.3639 73.1985 48.3639C70.7186 48.3639 68.9683 47.7655 67.9478 46.5687C67.2384 45.7342 66.8837 44.6035 66.8837 43.1764C66.8837 42.5664 66.951 41.9015 67.0857 41.1816L67.9321 36.3535C68.739 31.762 71.5527 29.4663 76.3733 29.4663ZM73.8777 43.6174C74.5604 43.6174 75.0974 43.4484 75.4886 43.1104C75.8811 42.7713 76.1638 42.0965 76.3368 41.0861L77.1605 36.4542C77.2046 36.1613 77.2267 35.8992 77.2267 35.6677C77.2267 34.6978 76.7338 34.2128 75.7481 34.2128C74.3653 34.2395 73.5358 35.0427 73.2595 36.6226L72.4375 41.2562C72.3771 41.6301 72.3469 42.0207 72.3469 42.4281C72.3469 43.2209 72.8572 43.6174 73.8777 43.6174ZM91.0363 29.6364L93.424 37.3135L98.558 29.6364H104.006L100.751 48.0253H95.3449L96.7503 40.1243L94.2355 44.0653H90.4041L89.2495 39.968L87.8162 48.0253H82.4349L85.6898 29.6364H91.0363Z" fill="#3CC600"/>
</g>
</g>
</g>
</g>
<defs>
<clipPath id="clip0_45_1019">
<rect width="107" height="60" fill="white"/>
</clipPath>
</defs>
</svg>
