<svg width="23" height="22" viewBox="0 0 23 22" fill="none" xmlns="http://www.w3.org/2000/svg">
<g id="SVG">
<g id="Vector">
<path fill-rule="evenodd" clip-rule="evenodd" d="M13.6667 11.6667L18 16L13.6667 11.6667Z" fill="black"/>
<path d="M14.197 11.1363C13.9041 10.8434 13.4292 10.8434 13.1363 11.1363C12.8434 11.4292 12.8434 11.9041 13.1363 12.197L14.197 11.1363ZM17.4697 16.5303C17.7626 16.8232 18.2374 16.8232 18.5303 16.5303C18.8232 16.2374 18.8232 15.7626 18.5303 15.4697L17.4697 16.5303ZM10.0556 12.3611C7.67766 12.3611 5.75 10.4334 5.75 8.05556H4.25C4.25 11.2619 6.84924 13.8611 10.0556 13.8611V12.3611ZM5.75 8.05556C5.75 5.67766 7.67766 3.75 10.0556 3.75V2.25C6.84924 2.25 4.25 4.84924 4.25 8.05556H5.75ZM10.0556 3.75C12.4334 3.75 14.3611 5.67766 14.3611 8.05556H15.8611C15.8611 4.84924 13.2619 2.25 10.0556 2.25V3.75ZM14.3611 8.05556C14.3611 10.4334 12.4334 12.3611 10.0556 12.3611V13.8611C13.2619 13.8611 15.8611 11.2619 15.8611 8.05556H14.3611ZM13.1363 12.197L17.4697 16.5303L18.5303 15.4697L14.197 11.1363L13.1363 12.197Z" fill="black"/>
</g>
</g>
</svg>
