<svg width="12" height="12" viewBox="0 0 12 12" fill="none" xmlns="http://www.w3.org/2000/svg">
<path d="M11.0935 5.89294C11.0935 8.90842 8.62825 11.3516 5.63477 11.3516C2.61929 11.3516 0.176087 8.90842 0.176087 5.89294C0.176087 2.89946 2.61929 0.43425 5.63477 0.43425C8.62825 0.43425 11.0935 2.89946 11.0935 5.89294ZM4.99646 8.79837L9.04645 4.74837C9.17852 4.61631 9.17852 4.37419 9.04645 4.24212L8.54021 3.75789C8.40814 3.60381 8.18803 3.60381 8.05597 3.75789L4.75434 7.05951L3.19157 5.51875C3.05951 5.36468 2.8394 5.36468 2.70733 5.51875L2.20108 6.00299C2.06902 6.13506 2.06902 6.37718 2.20108 6.50924L4.49021 8.79837C4.62228 8.93043 4.8644 8.93043 4.99646 8.79837Z" fill="black"/>
</svg>
